[tracklist]

This Bootleg recorded at Manhattan Center Studios, September 28, 1994

01. Hoochie Coochie Man
02. I'm Tore Down
03. Sinner's Prayer
04. Motherless Child
05. Malted Milk
06. Born Under A Bad Sign
07. Someday After A While
08. It Hurts Me Too
09. 44
10. Five Long Years
11. Crossroads
12. Ain't Nobody's Business

[EAC]

Exact Audio Copy V1.0 beta 1 from 15. November 2010

EAC extraction logfile from 13. February 2011, 19:46

Eric Clapton / The Last Rehearsal

Used drive  : ASUS    DRW-2014S1   Adapter: 0  ID: 0

Read mode               : Secure
Utilize accurate stream : Yes
Defeat audio cache      : Yes
Make use of C2 pointers : No

Read offset correction                      : 6
Overread into Lead-In and Lead-Out          : No
Fill up missing offset samples with silence : Yes
Delete leading and trailing silent blocks   : No
Null samples used in CRC calculations       : Yes
Used interface                              : Native Win32 interface for Win NT & 2000

Used output format : Internal WAV Routines
Sample format      : 44.100 Hz; 16 Bit; Stereo


TOC of the extracted CD

     Track |   Start  |  Length  | Start sector | End sector 
    ---------------------------------------------------------
        1  |  0:00.00 |  3:11.50 |         0    |    14374   
        2  |  3:11.50 |  4:06.60 |     14375    |    32884   
        3  |  7:18.35 |  4:04.72 |     32885    |    51256   
        4  | 11:23.32 |  3:17.20 |     51257    |    66051   
        5  | 14:40.52 |  2:46.53 |     66052    |    78554   
        6  | 17:27.30 |  4:18.05 |     78555    |    97909   
        7  | 21:45.35 |  5:52.50 |     97910    |   124359   
        8  | 27:38.10 |  3:27.02 |    124360    |   139886   
        9  | 31:05.12 |  4:14.03 |    139887    |   158939   
       10  | 35:19.15 |  4:35.45 |    158940    |   179609   
       11  | 39:54.60 |  5:53.07 |    179610    |   206091   
       12  | 45:47.67 |  4:27.23 |    206092    |   226139   


Range status and errors

Selected range

     Filename D:MusicEric Clapton1994 - The last RehearsalEric Clapton - The Last Rehearsal.wav

     Peak level 99.2 %
     Extraction speed 0.3 X
     Range quality 100.0 %
     Copy CRC 1B279948
     Copy OK

No errors occurred

 
AccurateRip summary
 
Track  1  not present in database
Track  2  not present in database
Track  3  not present in database
Track  4  not present in database
Track  5  not present in database
Track  6  not present in database
Track  7  not present in database
Track  8  not present in database
Track  9  not present in database
Track 10  not present in database
Track 11  not present in database
Track 12  not present in database
 
None of the tracks are present in the AccurateRip database

End of status report
